<mxfile host="Electron" modified="2024-02-25T19:54:19.407Z" agent="Mozilla/5.0 (Windows NT 10.0; Win64; x64) AppleWebKit/537.36 (KHTML, like Gecko) draw.io/23.1.5 Chrome/120.0.6099.109 Electron/28.1.0 Safari/537.36" etag="opWaVJbYc1YTxg_htVtj" version="23.1.5" type="device">
  <diagram name="Страница — 1" id="6cIwWmgPv0E4zhyten1u">
    <mxGraphModel dx="1167" dy="699" grid="0" gridSize="10" guides="1" tooltips="1" connect="1" arrows="1" fold="1" page="1" pageScale="1" pageWidth="4681" pageHeight="3300" math="0" shadow="0">
      <root>
        <mxCell id="0" />
        <mxCell id="1" parent="0" />
        <mxCell id="pzqpuRZgxI3HJM3CBUeD-1" value="начало" style="ellipse;whiteSpace=wrap;html=1;" parent="1" vertex="1">
          <mxGeometry x="480" y="10" width="70" height="30" as="geometry" />
        </mxCell>
        <mxCell id="pzqpuRZgxI3HJM3CBUeD-3" value="&lt;div&gt;#include&amp;lt;iostream&amp;gt;&lt;/div&gt;&lt;div&gt;#include&amp;lt;clocale&amp;gt;&lt;/div&gt;&lt;div&gt;using namespace std;&lt;/div&gt;&lt;div&gt;int board[8][8];&lt;/div&gt;&lt;div&gt;int main(){&lt;/div&gt;&lt;div&gt;&lt;span style=&quot;white-space: pre;&quot;&gt;&#x9;&lt;/span&gt;setlocale(LC_ALL,&quot;Ru&quot;);&lt;br&gt;&lt;/div&gt;" style="text;html=1;strokeColor=none;fillColor=none;align=left;verticalAlign=middle;whiteSpace=wrap;rounded=0;" parent="1" vertex="1">
          <mxGeometry x="570" y="40" width="160" height="90" as="geometry" />
        </mxCell>
        <mxCell id="pzqpuRZgxI3HJM3CBUeD-4" value="" style="endArrow=classic;html=1;rounded=0;" parent="1" edge="1">
          <mxGeometry width="50" height="50" relative="1" as="geometry">
            <mxPoint x="510" y="40" as="sourcePoint" />
            <mxPoint x="510" y="160" as="targetPoint" />
          </mxGeometry>
        </mxCell>
        <mxCell id="pzqpuRZgxI3HJM3CBUeD-11" value="" style="endArrow=none;html=1;rounded=0;entryX=0.189;entryY=-0.001;entryDx=0;entryDy=0;entryPerimeter=0;" parent="1" target="pzqpuRZgxI3HJM3CBUeD-3" edge="1">
          <mxGeometry width="50" height="50" relative="1" as="geometry">
            <mxPoint x="560" y="40" as="sourcePoint" />
            <mxPoint x="610" y="-10" as="targetPoint" />
          </mxGeometry>
        </mxCell>
        <mxCell id="pzqpuRZgxI3HJM3CBUeD-12" value="" style="endArrow=none;html=1;rounded=0;" parent="1" edge="1">
          <mxGeometry width="50" height="50" relative="1" as="geometry">
            <mxPoint x="597" y="130" as="sourcePoint" />
            <mxPoint x="560" y="130" as="targetPoint" />
          </mxGeometry>
        </mxCell>
        <mxCell id="pzqpuRZgxI3HJM3CBUeD-13" value="" style="endArrow=none;html=1;rounded=0;" parent="1" edge="1">
          <mxGeometry width="50" height="50" relative="1" as="geometry">
            <mxPoint x="560" y="40" as="sourcePoint" />
            <mxPoint x="560" y="130" as="targetPoint" />
          </mxGeometry>
        </mxCell>
        <mxCell id="pzqpuRZgxI3HJM3CBUeD-14" value="" style="endArrow=none;dashed=1;html=1;rounded=0;" parent="1" edge="1">
          <mxGeometry width="50" height="50" relative="1" as="geometry">
            <mxPoint x="510" y="84" as="sourcePoint" />
            <mxPoint x="560" y="84.47" as="targetPoint" />
          </mxGeometry>
        </mxCell>
        <mxCell id="pzqpuRZgxI3HJM3CBUeD-17" value="" style="edgeStyle=orthogonalEdgeStyle;rounded=0;orthogonalLoop=1;jettySize=auto;html=1;" parent="1" source="pzqpuRZgxI3HJM3CBUeD-15" target="pzqpuRZgxI3HJM3CBUeD-16" edge="1">
          <mxGeometry relative="1" as="geometry" />
        </mxCell>
        <mxCell id="pzqpuRZgxI3HJM3CBUeD-30" value="" style="edgeStyle=orthogonalEdgeStyle;rounded=0;orthogonalLoop=1;jettySize=auto;html=1;" parent="1" source="pzqpuRZgxI3HJM3CBUeD-15" target="pzqpuRZgxI3HJM3CBUeD-29" edge="1">
          <mxGeometry relative="1" as="geometry" />
        </mxCell>
        <mxCell id="pzqpuRZgxI3HJM3CBUeD-15" value="for (int i = 0; i &lt;= 7; ++i)" style="shape=hexagon;perimeter=hexagonPerimeter2;whiteSpace=wrap;html=1;fixedSize=1;" parent="1" vertex="1">
          <mxGeometry x="440" y="160" width="140" height="30" as="geometry" />
        </mxCell>
        <mxCell id="pzqpuRZgxI3HJM3CBUeD-21" value="" style="edgeStyle=orthogonalEdgeStyle;rounded=0;orthogonalLoop=1;jettySize=auto;html=1;" parent="1" source="pzqpuRZgxI3HJM3CBUeD-16" target="pzqpuRZgxI3HJM3CBUeD-20" edge="1">
          <mxGeometry relative="1" as="geometry" />
        </mxCell>
        <mxCell id="pzqpuRZgxI3HJM3CBUeD-16" value="for (int j = 0; j &amp;lt;= 7; ++j)" style="shape=hexagon;perimeter=hexagonPerimeter2;whiteSpace=wrap;html=1;fixedSize=1;" parent="1" vertex="1">
          <mxGeometry x="440" y="220" width="140" height="30" as="geometry" />
        </mxCell>
        <mxCell id="pzqpuRZgxI3HJM3CBUeD-18" value="1" style="text;html=1;align=center;verticalAlign=middle;resizable=0;points=[];autosize=1;strokeColor=none;fillColor=none;" parent="1" vertex="1">
          <mxGeometry x="478" y="191" width="30" height="30" as="geometry" />
        </mxCell>
        <mxCell id="pzqpuRZgxI3HJM3CBUeD-19" value="{" style="text;html=1;align=center;verticalAlign=middle;resizable=0;points=[];autosize=1;strokeColor=none;fillColor=none;" parent="1" vertex="1">
          <mxGeometry x="505" y="188" width="30" height="30" as="geometry" />
        </mxCell>
        <mxCell id="pzqpuRZgxI3HJM3CBUeD-20" value="board[i][j] = 0;" style="whiteSpace=wrap;html=1;" parent="1" vertex="1">
          <mxGeometry x="470" y="280" width="80" height="25" as="geometry" />
        </mxCell>
        <mxCell id="pzqpuRZgxI3HJM3CBUeD-22" value="1" style="text;html=1;align=center;verticalAlign=middle;resizable=0;points=[];autosize=1;strokeColor=none;fillColor=none;" parent="1" vertex="1">
          <mxGeometry x="475" y="248" width="30" height="30" as="geometry" />
        </mxCell>
        <mxCell id="pzqpuRZgxI3HJM3CBUeD-23" value="{" style="text;html=1;align=center;verticalAlign=middle;resizable=0;points=[];autosize=1;strokeColor=none;fillColor=none;" parent="1" vertex="1">
          <mxGeometry x="505" y="248" width="30" height="30" as="geometry" />
        </mxCell>
        <mxCell id="pzqpuRZgxI3HJM3CBUeD-24" value="" style="endArrow=classic;html=1;rounded=0;entryX=0;entryY=0.5;entryDx=0;entryDy=0;" parent="1" target="pzqpuRZgxI3HJM3CBUeD-16" edge="1">
          <mxGeometry width="50" height="50" relative="1" as="geometry">
            <mxPoint x="510" y="305" as="sourcePoint" />
            <mxPoint x="560" y="255" as="targetPoint" />
            <Array as="points">
              <mxPoint x="510" y="330" />
              <mxPoint x="410" y="330" />
              <mxPoint x="410" y="235" />
            </Array>
          </mxGeometry>
        </mxCell>
        <mxCell id="pzqpuRZgxI3HJM3CBUeD-25" value="}" style="text;html=1;align=center;verticalAlign=middle;resizable=0;points=[];autosize=1;strokeColor=none;fillColor=none;" parent="1" vertex="1">
          <mxGeometry x="505" y="300" width="30" height="30" as="geometry" />
        </mxCell>
        <mxCell id="pzqpuRZgxI3HJM3CBUeD-26" value="" style="endArrow=classic;html=1;rounded=0;entryX=0;entryY=0.5;entryDx=0;entryDy=0;" parent="1" target="pzqpuRZgxI3HJM3CBUeD-15" edge="1">
          <mxGeometry width="50" height="50" relative="1" as="geometry">
            <mxPoint x="580" y="235" as="sourcePoint" />
            <mxPoint x="630" y="185" as="targetPoint" />
            <Array as="points">
              <mxPoint x="600" y="235" />
              <mxPoint x="600" y="360" />
              <mxPoint x="380" y="360" />
              <mxPoint x="380" y="175" />
            </Array>
          </mxGeometry>
        </mxCell>
        <mxCell id="pzqpuRZgxI3HJM3CBUeD-27" value="}" style="text;html=1;align=center;verticalAlign=middle;resizable=0;points=[];autosize=1;strokeColor=none;fillColor=none;" parent="1" vertex="1">
          <mxGeometry x="595" y="334" width="30" height="30" as="geometry" />
        </mxCell>
        <mxCell id="pzqpuRZgxI3HJM3CBUeD-28" value="0" style="text;html=1;align=center;verticalAlign=middle;resizable=0;points=[];autosize=1;strokeColor=none;fillColor=none;" parent="1" vertex="1">
          <mxGeometry x="575" y="208" width="30" height="30" as="geometry" />
        </mxCell>
        <mxCell id="pzqpuRZgxI3HJM3CBUeD-32" value="" style="edgeStyle=orthogonalEdgeStyle;rounded=0;orthogonalLoop=1;jettySize=auto;html=1;" parent="1" source="pzqpuRZgxI3HJM3CBUeD-29" target="pzqpuRZgxI3HJM3CBUeD-31" edge="1">
          <mxGeometry relative="1" as="geometry" />
        </mxCell>
        <mxCell id="pzqpuRZgxI3HJM3CBUeD-29" value="tryqueen(0);" style="shape=process;whiteSpace=wrap;html=1;backgroundOutline=1;" parent="1" vertex="1">
          <mxGeometry x="655" y="325" width="90" height="25" as="geometry" />
        </mxCell>
        <mxCell id="pzqpuRZgxI3HJM3CBUeD-34" value="" style="edgeStyle=orthogonalEdgeStyle;rounded=0;orthogonalLoop=1;jettySize=auto;html=1;" parent="1" source="pzqpuRZgxI3HJM3CBUeD-31" target="pzqpuRZgxI3HJM3CBUeD-33" edge="1">
          <mxGeometry relative="1" as="geometry" />
        </mxCell>
        <mxCell id="pzqpuRZgxI3HJM3CBUeD-59" value="" style="edgeStyle=orthogonalEdgeStyle;rounded=0;orthogonalLoop=1;jettySize=auto;html=1;" parent="1" source="pzqpuRZgxI3HJM3CBUeD-31" target="pzqpuRZgxI3HJM3CBUeD-58" edge="1">
          <mxGeometry relative="1" as="geometry" />
        </mxCell>
        <mxCell id="pzqpuRZgxI3HJM3CBUeD-31" value="for (int i = 0; i &lt;= 7; ++i)" style="shape=hexagon;perimeter=hexagonPerimeter2;whiteSpace=wrap;html=1;fixedSize=1;" parent="1" vertex="1">
          <mxGeometry x="627.5" y="377" width="145" height="24.5" as="geometry" />
        </mxCell>
        <mxCell id="pzqpuRZgxI3HJM3CBUeD-39" value="" style="edgeStyle=orthogonalEdgeStyle;rounded=0;orthogonalLoop=1;jettySize=auto;html=1;" parent="1" source="pzqpuRZgxI3HJM3CBUeD-33" target="pzqpuRZgxI3HJM3CBUeD-38" edge="1">
          <mxGeometry relative="1" as="geometry" />
        </mxCell>
        <mxCell id="pzqpuRZgxI3HJM3CBUeD-53" value="" style="edgeStyle=orthogonalEdgeStyle;rounded=0;orthogonalLoop=1;jettySize=auto;html=1;" parent="1" source="pzqpuRZgxI3HJM3CBUeD-33" target="pzqpuRZgxI3HJM3CBUeD-52" edge="1">
          <mxGeometry relative="1" as="geometry" />
        </mxCell>
        <mxCell id="pzqpuRZgxI3HJM3CBUeD-33" value="for (int j = 0; j &amp;lt;= 7; ++j)" style="shape=hexagon;perimeter=hexagonPerimeter2;whiteSpace=wrap;html=1;fixedSize=1;" parent="1" vertex="1">
          <mxGeometry x="627.5" y="427" width="145" height="24.5" as="geometry" />
        </mxCell>
        <mxCell id="pzqpuRZgxI3HJM3CBUeD-35" value="0" style="text;html=1;align=center;verticalAlign=middle;resizable=0;points=[];autosize=1;strokeColor=none;fillColor=none;" parent="1" vertex="1">
          <mxGeometry x="565" y="148" width="30" height="30" as="geometry" />
        </mxCell>
        <mxCell id="pzqpuRZgxI3HJM3CBUeD-36" value="1" style="text;html=1;align=center;verticalAlign=middle;resizable=0;points=[];autosize=1;strokeColor=none;fillColor=none;" parent="1" vertex="1">
          <mxGeometry x="675" y="398" width="30" height="30" as="geometry" />
        </mxCell>
        <mxCell id="pzqpuRZgxI3HJM3CBUeD-37" value="{" style="text;html=1;align=center;verticalAlign=middle;resizable=0;points=[];autosize=1;strokeColor=none;fillColor=none;" parent="1" vertex="1">
          <mxGeometry x="695" y="398" width="30" height="30" as="geometry" />
        </mxCell>
        <mxCell id="pzqpuRZgxI3HJM3CBUeD-43" value="" style="edgeStyle=orthogonalEdgeStyle;rounded=0;orthogonalLoop=1;jettySize=auto;html=1;" parent="1" source="pzqpuRZgxI3HJM3CBUeD-38" target="pzqpuRZgxI3HJM3CBUeD-42" edge="1">
          <mxGeometry relative="1" as="geometry" />
        </mxCell>
        <mxCell id="pzqpuRZgxI3HJM3CBUeD-45" value="" style="edgeStyle=orthogonalEdgeStyle;rounded=0;orthogonalLoop=1;jettySize=auto;html=1;" parent="1" source="pzqpuRZgxI3HJM3CBUeD-38" target="pzqpuRZgxI3HJM3CBUeD-44" edge="1">
          <mxGeometry relative="1" as="geometry" />
        </mxCell>
        <mxCell id="pzqpuRZgxI3HJM3CBUeD-38" value="if (board[i][j] == -1)" style="rhombus;whiteSpace=wrap;html=1;" parent="1" vertex="1">
          <mxGeometry x="635" y="480" width="130" height="46.25" as="geometry" />
        </mxCell>
        <mxCell id="pzqpuRZgxI3HJM3CBUeD-40" value="1" style="text;html=1;align=center;verticalAlign=middle;resizable=0;points=[];autosize=1;strokeColor=none;fillColor=none;" parent="1" vertex="1">
          <mxGeometry x="667" y="453.5" width="30" height="30" as="geometry" />
        </mxCell>
        <mxCell id="pzqpuRZgxI3HJM3CBUeD-41" value="{" style="text;html=1;align=center;verticalAlign=middle;resizable=0;points=[];autosize=1;strokeColor=none;fillColor=none;" parent="1" vertex="1">
          <mxGeometry x="696" y="451" width="30" height="30" as="geometry" />
        </mxCell>
        <mxCell id="pzqpuRZgxI3HJM3CBUeD-42" value="cout &lt;&lt; &quot;Q&quot;;" style="shape=parallelogram;perimeter=parallelogramPerimeter;whiteSpace=wrap;html=1;fixedSize=1;" parent="1" vertex="1">
          <mxGeometry x="530" y="540" width="100" height="26.88" as="geometry" />
        </mxCell>
        <mxCell id="pzqpuRZgxI3HJM3CBUeD-44" value="cout &lt;&lt; &quot;*&quot;;" style="shape=parallelogram;perimeter=parallelogramPerimeter;whiteSpace=wrap;html=1;fixedSize=1;" parent="1" vertex="1">
          <mxGeometry x="772.5" y="540" width="100" height="26.88" as="geometry" />
        </mxCell>
        <mxCell id="pzqpuRZgxI3HJM3CBUeD-46" value="1" style="text;html=1;align=center;verticalAlign=middle;resizable=0;points=[];autosize=1;strokeColor=none;fillColor=none;" parent="1" vertex="1">
          <mxGeometry x="609" y="475" width="30" height="30" as="geometry" />
        </mxCell>
        <mxCell id="pzqpuRZgxI3HJM3CBUeD-47" value="0" style="text;html=1;align=center;verticalAlign=middle;resizable=0;points=[];autosize=1;strokeColor=none;fillColor=none;" parent="1" vertex="1">
          <mxGeometry x="745" y="474" width="30" height="30" as="geometry" />
        </mxCell>
        <mxCell id="pzqpuRZgxI3HJM3CBUeD-48" value="" style="endArrow=classic;html=1;rounded=0;entryX=0;entryY=0.5;entryDx=0;entryDy=0;" parent="1" target="pzqpuRZgxI3HJM3CBUeD-33" edge="1">
          <mxGeometry width="50" height="50" relative="1" as="geometry">
            <mxPoint x="700" y="590" as="sourcePoint" />
            <mxPoint x="750" y="540" as="targetPoint" />
            <Array as="points">
              <mxPoint x="700" y="610" />
              <mxPoint x="520" y="610" />
              <mxPoint x="520" y="440" />
            </Array>
          </mxGeometry>
        </mxCell>
        <mxCell id="pzqpuRZgxI3HJM3CBUeD-49" value="" style="endArrow=classic;html=1;rounded=0;" parent="1" edge="1">
          <mxGeometry width="50" height="50" relative="1" as="geometry">
            <mxPoint x="820" y="566.88" as="sourcePoint" />
            <mxPoint x="700" y="590" as="targetPoint" />
            <Array as="points">
              <mxPoint x="820" y="590" />
            </Array>
          </mxGeometry>
        </mxCell>
        <mxCell id="pzqpuRZgxI3HJM3CBUeD-50" value="" style="endArrow=classic;html=1;rounded=0;" parent="1" edge="1">
          <mxGeometry width="50" height="50" relative="1" as="geometry">
            <mxPoint x="577.5" y="566.88" as="sourcePoint" />
            <mxPoint x="700" y="590" as="targetPoint" />
            <Array as="points">
              <mxPoint x="578" y="590" />
            </Array>
          </mxGeometry>
        </mxCell>
        <mxCell id="pzqpuRZgxI3HJM3CBUeD-51" value="}" style="text;html=1;align=center;verticalAlign=middle;resizable=0;points=[];autosize=1;strokeColor=none;fillColor=none;" parent="1" vertex="1">
          <mxGeometry x="695" y="586" width="30" height="30" as="geometry" />
        </mxCell>
        <mxCell id="pzqpuRZgxI3HJM3CBUeD-52" value="cout &amp;lt;&amp;lt; endl;" style="shape=parallelogram;perimeter=parallelogramPerimeter;whiteSpace=wrap;html=1;fixedSize=1;" parent="1" vertex="1">
          <mxGeometry x="840" y="600" width="105" height="30.75" as="geometry" />
        </mxCell>
        <mxCell id="pzqpuRZgxI3HJM3CBUeD-54" value="0" style="text;html=1;align=center;verticalAlign=middle;resizable=0;points=[];autosize=1;strokeColor=none;fillColor=none;" parent="1" vertex="1">
          <mxGeometry x="765" y="408" width="30" height="30" as="geometry" />
        </mxCell>
        <mxCell id="pzqpuRZgxI3HJM3CBUeD-55" value="" style="endArrow=classic;html=1;rounded=0;entryX=0;entryY=0.5;entryDx=0;entryDy=0;" parent="1" target="pzqpuRZgxI3HJM3CBUeD-31" edge="1">
          <mxGeometry width="50" height="50" relative="1" as="geometry">
            <mxPoint x="890" y="630.75" as="sourcePoint" />
            <mxPoint x="940" y="580.75" as="targetPoint" />
            <Array as="points">
              <mxPoint x="890" y="660" />
              <mxPoint x="490" y="660" />
              <mxPoint x="490" y="390" />
            </Array>
          </mxGeometry>
        </mxCell>
        <mxCell id="pzqpuRZgxI3HJM3CBUeD-56" value="}" style="text;html=1;align=center;verticalAlign=middle;resizable=0;points=[];autosize=1;strokeColor=none;fillColor=none;" parent="1" vertex="1">
          <mxGeometry x="885" y="628" width="30" height="30" as="geometry" />
        </mxCell>
        <mxCell id="pzqpuRZgxI3HJM3CBUeD-58" value="return 0;}" style="ellipse;whiteSpace=wrap;html=1;" parent="1" vertex="1">
          <mxGeometry x="960" y="617.25" width="65" height="40.75" as="geometry" />
        </mxCell>
      </root>
    </mxGraphModel>
  </diagram>
</mxfile>
